M48
; DRILL file {KiCad 7.0.8} date Wed Oct 23 16:16:56 2024
; FORMAT={-:-/ absolute / metric / decimal}
; #@! TF.CreationDate,2024-10-23T16:16:56+09:00
; #@! TF.GenerationSoftware,Kicad,Pcbnew,7.0.8
; #@! TF.FileFunction,MixedPlating,1,2
FMAT,2
METRIC
; #@! TA.AperFunction,Plated,PTH,ViaDrill
T1C0.400
; #@! TA.AperFunction,Plated,PTH,ComponentDrill
T2C0.900
; #@! TA.AperFunction,Plated,PTH,ComponentDrill
T3C1.000
; #@! TA.AperFunction,Plated,PTH,ComponentDrill
T4C1.016
; #@! TA.AperFunction,Plated,PTH,ComponentDrill
T5C1.570
; #@! TA.AperFunction,Plated,PTH,ComponentDrill
T6C3.300
; #@! TA.AperFunction,NonPlated,NPTH,ComponentDrill
T7C1.600
%
G90
G05
T1
X126.873Y-100.838
X126.873Y-113.919
X140.843Y-92.5
X142.494Y-97.028
X143.51Y-110.236
X145.3Y-124.6
X146.9Y-123.7
X149.25Y-115.0
X151.13Y-114.046
X155.0Y-123.5
X156.2Y-122.5
X157.0Y-104.5
X158.75Y-104.394
X158.75Y-108.712
X159.004Y-84.836
X159.75Y-119.25
X160.02Y-108.712
X160.75Y-97.25
X160.75Y-100.25
X160.75Y-120.0
X161.25Y-91.186
X163.25Y-110.5
X164.5Y-116.5
X168.402Y-107.098
X170.38Y-119.38
X170.942Y-107.058
X172.72Y-119.38
X173.0Y-116.25
X173.75Y-128.75
X174.75Y-83.0
X177.5Y-122.25
T2
X153.67Y-77.47
X153.67Y-80.01
T3
X118.237Y-87.757
X118.237Y-92.837
X118.237Y-118.364
X118.237Y-123.444
X120.777Y-85.217
X120.777Y-90.297
X120.777Y-92.837
X120.777Y-115.824
X120.777Y-120.904
X120.777Y-123.444
X145.415Y-77.47
X145.415Y-80.01
X171.45Y-76.835
X171.45Y-79.375
T4
X127.762Y-126.365
X127.762Y-128.905
X130.302Y-126.365
X130.302Y-128.905
X132.842Y-126.365
X132.842Y-128.905
X135.382Y-126.365
X135.382Y-128.905
X137.922Y-126.365
X137.922Y-128.905
X146.685Y-126.365
X146.685Y-128.905
X149.225Y-126.365
X149.225Y-128.905
X151.765Y-126.365
X151.765Y-128.905
X154.305Y-126.365
X154.305Y-128.905
X156.845Y-126.365
X156.845Y-128.905
X159.385Y-126.365
X159.385Y-128.905
X161.925Y-126.365
X161.925Y-128.905
X164.465Y-126.365
X164.465Y-128.905
X167.005Y-126.365
X167.005Y-128.905
X169.545Y-126.365
X169.545Y-128.905
T5
X118.237Y-85.217
X118.237Y-90.297
X118.237Y-115.824
X118.237Y-120.904
X120.777Y-87.757
X120.777Y-118.364
X123.317Y-85.217
X123.317Y-90.297
X123.317Y-115.824
X123.317Y-120.904
T6
X119.888Y-78.4
X119.888Y-127.41
X177.8Y-78.4
X177.8Y-127.4
T7
X170.838Y-89.289
X170.843Y-100.957
X177.838Y-89.289
X177.843Y-100.957
T0
M30
