G04 #@! TF.GenerationSoftware,KiCad,Pcbnew,7.0.8*
G04 #@! TF.CreationDate,2024-10-23T16:16:12+09:00*
G04 #@! TF.ProjectId,hat.pa30,6861742e-7061-4333-902e-6b696361645f,rev?*
G04 #@! TF.SameCoordinates,Original*
G04 #@! TF.FileFunction,Soldermask,Bot*
G04 #@! TF.FilePolarity,Negative*
%FSLAX46Y46*%
G04 Gerber Fmt 4.6, Leading zero omitted, Abs format (unit mm)*
G04 Created by KiCad (PCBNEW 7.0.8) date 2024-10-23 16:16:12*
%MOMM*%
%LPD*%
G01*
G04 APERTURE LIST*
%ADD10C,5.300000*%
%ADD11C,1.600000*%
%ADD12C,1.800000*%
%ADD13C,1.850000*%
%ADD14R,8.000000X3.300000*%
%ADD15R,1.800000X1.800000*%
%ADD16C,1.524000*%
%ADD17R,1.700000X1.700000*%
%ADD18O,1.700000X1.700000*%
%ADD19C,0.800000*%
G04 APERTURE END LIST*
D10*
X177800000Y-127400000D03*
D11*
X177843000Y-100957000D03*
X170843000Y-100957000D03*
D12*
X118237000Y-118364000D03*
D13*
X120777000Y-118364000D03*
X118237000Y-123444000D03*
X120777000Y-123444000D03*
D14*
X120777000Y-121664000D03*
D13*
X118237000Y-120904000D03*
X120777000Y-120904000D03*
X123317000Y-120904000D03*
X118237000Y-115824000D03*
X120777000Y-115824000D03*
X123317000Y-115824000D03*
D14*
X120777000Y-115064000D03*
X120777000Y-84457000D03*
D13*
X123317000Y-85217000D03*
X120777000Y-85217000D03*
X118237000Y-85217000D03*
X123317000Y-90297000D03*
X120777000Y-90297000D03*
X118237000Y-90297000D03*
D14*
X120777000Y-91057000D03*
D13*
X120777000Y-92837000D03*
X118237000Y-92837000D03*
X120777000Y-87757000D03*
D12*
X118237000Y-87757000D03*
D15*
X153670000Y-77470000D03*
D12*
X153670000Y-80010000D03*
D16*
X137922000Y-126365000D03*
X137922000Y-128905000D03*
X135382000Y-126365000D03*
X135382000Y-128905000D03*
X132842000Y-126365000D03*
X132842000Y-128905000D03*
X130302000Y-126365000D03*
X130302000Y-128905000D03*
X127762000Y-126365000D03*
X127762000Y-128905000D03*
D10*
X177800000Y-78400000D03*
D17*
X145415000Y-80010000D03*
D18*
X145415000Y-77470000D03*
D11*
X177838000Y-89289000D03*
X170838000Y-89289000D03*
D17*
X171450000Y-79375000D03*
D18*
X171450000Y-76835000D03*
D10*
X119888000Y-78400000D03*
X119888000Y-127410000D03*
D16*
X169545000Y-128905000D03*
X169545000Y-126365000D03*
X167005000Y-128905000D03*
X167005000Y-126365000D03*
X164465000Y-128905000D03*
X164465000Y-126365000D03*
X161925000Y-128905000D03*
X161925000Y-126365000D03*
X159385000Y-128905000D03*
X159385000Y-126365000D03*
X156845000Y-128905000D03*
X156845000Y-126365000D03*
X154305000Y-128905000D03*
X154305000Y-126365000D03*
X151765000Y-128905000D03*
X151765000Y-126365000D03*
X149225000Y-128905000D03*
X149225000Y-126365000D03*
X146685000Y-128905000D03*
X146685000Y-126365000D03*
D19*
X126873000Y-113919000D03*
X126873000Y-100838000D03*
X173750000Y-128750000D03*
X140843000Y-92500000D03*
X164500000Y-116500000D03*
X149250000Y-115000000D03*
X174750000Y-83000000D03*
X177500000Y-122250000D03*
X173000000Y-116250000D03*
X157000000Y-104500000D03*
X160020000Y-108712000D03*
X146900000Y-123700000D03*
X158750000Y-108712000D03*
X145300000Y-124600000D03*
X155000000Y-123500000D03*
X168402000Y-107098000D03*
X156200000Y-122500000D03*
X170942000Y-107058000D03*
X160750000Y-120000000D03*
X160750000Y-97250000D03*
X161250000Y-91186000D03*
X160750000Y-100250000D03*
X159750000Y-119250000D03*
X142494000Y-97028000D03*
X143510000Y-110236000D03*
X172720000Y-119380000D03*
X170380000Y-119380000D03*
X163250000Y-110500000D03*
X158750000Y-104394000D03*
X159004000Y-84836000D03*
X151130000Y-114046000D03*
M02*
